<svg width="64" height="64" viewBox="0 0 64 64" fill="none" xmlns="http://www.w3.org/2000/svg">
<g clip-path="url(#clip0_603_8)">
<path d="M26.6667 8.00517C38.4293 8.00517 48 15.6025 48 24.9385C48 33.0318 39.9227 41.7678 26.8667 41.7678C22.6533 41.7678 19.6187 40.9225 16.952 40.2718C14.376 41.8532 13.6027 42.4398 8.936 43.9332C10.0427 39.8852 9.90133 38.1145 9.81867 35.4425C7.58667 32.7732 5.33333 29.9252 5.33333 24.9385C5.33333 15.6025 14.904 8.00517 26.6667 8.00517V8.00517ZM26.6667 2.6665C12.584 2.6665 0 12.0692 0 24.9385C0 29.5012 1.64 33.9812 4.54667 37.4585C4.672 41.5305 2.27733 47.3732 0.117333 51.6238C5.89867 50.5812 14.1227 48.2692 17.848 45.9838C20.9973 46.7545 24.0133 47.1065 26.8667 47.1065C42.608 47.1065 53.3333 36.3385 53.3333 24.9385C53.3333 11.9998 40.664 2.6665 26.6667 2.6665V2.6665ZM57.4267 32.4638C56.9973 33.7652 56.464 35.0265 55.824 36.2398C60.296 39.6052 61.8427 44.8425 57.0613 50.5465C57.0053 52.5332 56.9307 53.3438 57.4293 55.5198C55.0507 54.7012 54.8187 54.4745 52.9893 53.3518C47.3173 54.7358 41.616 55.2078 36.752 51.0718C35.2533 51.4958 33.6987 51.8132 32.112 52.0425C36.1467 57.0478 43.5733 59.7678 52.3173 57.6425C54.7547 59.1385 60.1387 60.6478 63.9227 61.3358C62.5093 58.5492 60.944 54.7252 61.0213 52.0585C65.7013 46.4638 65.136 37.5625 57.4267 32.4638V32.4638ZM17.3333 22.4292C15.7573 22.4292 14.4773 23.7065 14.4773 25.2852C14.4773 26.8638 15.7573 28.1412 17.3333 28.1412C18.9093 28.1412 20.1893 26.8638 20.1893 25.2852C20.1893 23.7065 18.9093 22.4292 17.3333 22.4292ZM26.6667 22.4292C25.0907 22.4292 23.8107 23.7065 23.8107 25.2852C23.8107 26.8638 25.0907 28.1412 26.6667 28.1412C28.2427 28.1412 29.5227 26.8638 29.5227 25.2852C29.5227 23.7065 28.2427 22.4292 26.6667 22.4292ZM36 22.4292C34.424 22.4292 33.144 23.7065 33.144 25.2852C33.144 26.8638 34.424 28.1412 36 28.1412C37.576 28.1412 38.856 26.8638 38.856 25.2852C38.856 23.7065 37.576 22.4292 36 22.4292Z" fill="white"/>
</g>
<defs>
<clipPath id="clip0_603_8">
<rect width="64" height="64" fill="white"/>
</clipPath>
</defs>
</svg>
