<svg width="64" height="64" viewBox="0 0 64 64" fill="none" xmlns="http://www.w3.org/2000/svg">
<g clip-path="url(#clip0_603_2)">
<path d="M42.6667 26.6667C51.9173 26.6667 48 37.3333 48 37.3333C48 37.3333 58.6667 33.0827 58.6667 42.6667V58.6667H32V26.6667H42.6667ZM44.872 21.3333H26.6667V64H64V40.4213C64 34.0427 53.304 21.3333 44.872 21.3333V21.3333ZM21.3333 53.3333H5.33333V10.6667H16L21.6053 16H32L37.3333 10.6667H48V16.3867C49.7493 16.768 51.5387 17.4293 53.3333 18.3973V5.33333H45.3333C42.056 5.33333 39.52 2.44267 37.3333 0H16C13.8133 2.44267 11.2773 5.33333 8 5.33333H0V58.6667H21.3333V53.3333V53.3333ZM26.6667 5.33333C28.1413 5.33333 29.3333 6.528 29.3333 8C29.3333 9.472 28.1413 10.6667 26.6667 10.6667C25.192 10.6667 24 9.472 24 8C24 6.528 25.192 5.33333 26.6667 5.33333ZM37.3333 53.3333H53.3333V50.6667H37.3333V53.3333V53.3333ZM37.3333 48H53.3333V45.3333H37.3333V48V48ZM37.3333 42.6667H53.3333V40H37.3333V42.6667V42.6667Z" fill="white"/>
</g>
<defs>
<clipPath id="clip0_603_2">
<rect width="64" height="64" fill="white"/>
</clipPath>
</defs>
</svg>
