<svg width="64" height="64" viewBox="0 0 64 64" fill="none" xmlns="http://www.w3.org/2000/svg">
<path fill-rule="evenodd" clip-rule="evenodd" d="M35.7413 64H0V5.33333H8C11.2827 5.33333 13.816 2.44267 16 0H37.3333C39.5227 2.44267 42.0587 5.33333 45.3333 5.33333H53.3333V29.7333C52.04 29.472 50.7013 29.3333 49.3333 29.3333L48 29.376V10.6667H37.3333L32 16H21.608L16 10.6667H5.33333V58.6667H31.6427C32.7013 60.6693 34.0933 62.472 35.7413 64V64ZM49.3333 34.6667C57.4267 34.6667 64 41.2373 64 49.3333C64 57.4293 57.4267 64 49.3333 64C41.2373 64 34.6667 57.4293 34.6667 49.3333C34.6667 41.2373 41.2373 34.6667 49.3333 34.6667ZM49.3333 40C54.4827 40 58.6667 44.1813 58.6667 49.3333C58.6667 54.4853 54.4827 58.6667 49.3333 58.6667C44.1813 58.6667 40 54.4853 40 49.3333C40 44.1813 44.1813 40 49.3333 40ZM56 50.6667H48V42.6667H50.6667V48H56V50.6667ZM15.5973 39.8613L12.8 37.2373L10.6667 39.432L15.6373 44.168L24 35.656L21.8267 33.5013L15.5973 39.8613V39.8613ZM32 42.6667H26.6667V40H32V42.6667ZM37.3333 37.3333H26.6667V34.6667H37.3333V37.3333ZM15.5973 26.6L12.8 23.9787L10.6667 26.1733L15.6373 30.9093L24 22.3973L21.8267 20.2427L15.5973 26.6ZM37.3333 29.3333H26.6667V26.6667H37.3333V29.3333ZM37.3333 24H26.6667V21.3333H37.3333V24ZM24 8C24 9.472 25.1973 10.6667 26.6667 10.6667C28.1413 10.6667 29.3333 9.472 29.3333 8C29.3333 6.528 28.1413 5.33333 26.6667 5.33333C25.1973 5.33333 24 6.528 24 8Z" fill="white"/>
</svg>
