<svg width="15" height="24" viewBox="0 0 15 24" fill="none" xmlns="http://www.w3.org/2000/svg">
<g clip-path="url(#clip0_660_82)">
<path d="M14.5594 16.9408C15.1453 17.5268 15.1453 18.476 14.5594 19.0619C14.2688 19.3549 13.8844 19.5002 13.5 19.5002C13.1156 19.5002 12.7322 19.3537 12.4397 19.0607L7.5 14.1236L2.56078 19.0596C2.26781 19.3549 1.88391 19.5002 1.5 19.5002C1.11609 19.5002 0.732656 19.3549 0.439453 19.0596C-0.146484 18.4736 -0.146484 17.5244 0.439453 16.9385L5.38008 11.9978L0.439453 7.05957C-0.146484 6.47363 -0.146484 5.52441 0.439453 4.93848C1.02539 4.35254 1.97461 4.35254 2.56055 4.93848L7.5 9.88144L12.4406 4.94082C13.0266 4.35488 13.9758 4.35488 14.5617 4.94082C15.1477 5.52676 15.1477 6.47598 14.5617 7.06191L9.62109 12.0025L14.5594 16.9408Z" fill="#EC3528"/>
</g>
<defs>
<clipPath id="clip0_660_82">
<rect width="15" height="24" fill="white"/>
</clipPath>
</defs>
</svg>
